#!OML:ASF E:\acrobat2\Project_11_07_03\Capture day 1\Session 1\Acrobat.ASF
:FULLY-SPECIFIED
:DEGREES
411
root 11.2479 18.2614 -4.81464 1.82034 1.59765 2.51159
lowerback -3.2296 0.166336 -4.75325
upperback -0.977443 0.392988 -1.89782
thorax 0.787681 0.194325 0.729865
lowerneck 1.8948 -2.51926 -1.64096
upperneck 6.54339 -3.82204 8.41833
head 1.97493 -1.79511 2.96516
rclavicle -7.442e-015 4.13472e-014
rhumerus -43.207 1.98061 -85.1066
rradius 32.6162
rwrist 6.50099
rhand 1.63222 -45.1205
rfingers 7.12502
rthumb 27.1528 -73.1871
lclavicle -7.442e-015 4.13472e-014
lhumerus -26.7146 -21.9293 88.8319
lradius 23.9965
lwrist 11.3708
lhand -14.2454 -9.96112
lfingers 7.12502
lthumb 11.8925 19.6811
rfemur -16.6006 -10.0344 11.4396
rtibia 55.2817
rfoot -7.32965 -9.26043
rtoes 7.193
lfemur 0.828807 1.97004 -21.8122
ltibia 4.52245
lfoot -4.70341 -5.5565
ltoes 27.4754
412
root 11.2655 18.2647 -4.67187 1.84575 1.74337 2.43096
lowerback -3.1786 0.0699813 -4.68179
upperback -1.0185 0.256581 -1.81717
thorax 0.723353 0.128062 0.767445
lowerneck 1.97045 -2.5373 -1.56532
upperneck 6.6475 -3.85528 8.45765
head 1.99685 -1.8084 2.96542
rclavicle 5.51627e-015 5.56597e-015
rhumerus -43.4698 1.30696 -84.8132
rradius 32.1129
rwrist 6.34152
rhand 1.6574 -45.3727
rfingers 7.12502
rthumb 27.1769 -73.4356
lclavicle 5.51627e-015 5.56597e-015
lhumerus -25.9708 -22.6304 88.609
lradius 24.1051
lwrist 11.2437
lhand -14.0315 -9.80018
lfingers 7.12502
lthumb 12.0987 19.83
rfemur -17.4602 -10.0605 11.7733
rtibia 54.2568
rfoot -8.0485 -8.8364
rtoes 6.43972
lfemur 1.2542 1.7785 -21.7853
ltibia 4.62225
lfoot -4.97477 -5.85303
ltoes 28.1576
413
root 11.283 18.2675 -4.52812 1.88479 1.90325 2.36971
lowerback -3.12334 -0.0315242 -4.60953
upperback -1.07694 0.112671 -1.75348
thorax 0.63924 0.058589 0.787107
lowerneck 2.05065 -2.54362 -1.4965
upperneck 6.76537 -3.8754 8.52612
head 2.02282 -1.81451 2.97732
rclavicle 6.02566e-015 -4.37326e-015
rhumerus -43.7579 0.594329 -84.501
rradius 31.5985
rwrist 6.16418
rhand 1.68975 -45.5982
rfingers 7.12502
rthumb 27.2078 -73.6562
lclavicle 6.02566e-015 -4.37326e-015
lhumerus -25.2808 -23.2705 88.3457
lradius 24.2621
lwrist 11.1455
lhand -13.8075 -9.70145
lfingers 7.12502
lthumb 12.3147 19.9159
rfemur -18.2647 -10.0598 12.0793
rtibia 53.0489
rfoot -8.8141 -8.42269
rtoes 5.70333
lfemur 1.6718 1.5533 -21.7907
ltibia 4.71415
lfoot -5.2986 -6.09368
ltoes 28.7322
414
root 11.2997 18.2696 -4.3842 1.93751 2.07787 2.28714
lowerback -3.06833 -0.138651 -4.51643
upperback -1.14314 -0.0394317 -1.68478
thorax 0.547673 -0.0148287 0.800297
lowerneck 2.10043 -2.53937 -1.43075
upperneck 6.91276 -3.88469 8.60809
head 2.06389 -1.81353 2.99454
rclavicle -1.97542e-015 -1.74931e-014
rhumerus -44.04 -0.142577 -84.1578
rradius 31.0641
rwrist 5.99182
rhand 1.7359 -45.774
rfingers 7.12502
rthumb 27.252 -73.8251
lclavicle -1.97542e-015 -1.74931e-014
lhumerus -24.6074 -23.8583 88.0511
lradius 24.4382
lwrist 11.1076
lhand -13.5855 -9.70181
lfingers 7.12502
lthumb 12.5288 19.9026
rfemur -19.0164 -10.0137 12.4137
rtibia 51.6654
rfoot -9.59228 -8.07078
rtoes 5.01429
lfemur 2.07023 1.29138 -21.7727
ltibia 4.81288
lfoot -5.68211 -6.30399
ltoes 29.2414
415
root 11.3157 18.2709 -4.23965 1.99365 2.26517 2.19217
lowerback -3.02808 -0.252128 -4.42569
upperback -1.19867 -0.198413 -1.60137
thorax 0.475618 -0.0922293 0.829916
lowerneck 2.09976 -2.53439 -1.35296
upperneck 7.08023 -3.89367 8.66232
head 2.11951 -1.81076 2.99968
rclavicle 9.60378e-015 -2.10712e-014
rhumerus -44.2861 -0.876268 -83.7764
rradius 30.5026
rwrist 5.83842
rhand 1.7895 -45.8874
rfingers 7.12502
rthumb 27.3033 -73.9304
lclavicle 9.60378e-015 -2.10712e-014
lhumerus -23.9178 -24.3687 87.7338
lradius 24.6125
lwrist 11.1183
lhand -13.3769 -9.80383
lfingers 7.12502
lthumb 12.7298 19.7881
rfemur -19.6966 -9.92627 12.761
rtibia 50.1065
rfoot -10.3314 -7.82088
rtoes 4.14932
lfemur 2.46644 0.995092 -21.7446
ltibia 4.91326
lfoot -6.10352 -6.51026
ltoes 29.8135
416
root 11.3314 18.2711 -4.09428 2.05558 2.46269 2.10585
lowerback -3.02184 -0.376606 -4.36723
upperback -1.23486 -0.368264 -1.49919
thorax 0.443259 -0.17595 0.896436
lowerneck 2.05431 -2.53186 -1.26895
upperneck 7.24834 -3.90448 8.67749
head 2.18222 -1.80827 2.98985
rclavicle -2.75814e-015 -4.77083e-015
rhumerus -44.485 -1.57406 -83.3579
rradius 29.919
rwrist 5.70948
rhand 1.83521 -45.934
rfingers 7.12502
rthumb 27.347 -73.9701
lclavicle -2.75814e-015 -4.77083e-015
lhumerus -23.2088 -24.7935 87.4054
lradius 24.7858
lwrist 11.173
lhand -13.1811 -9.93871
lfingers 7.12502
lthumb 12.9187 19.6414
rfemur -20.3028 -9.8045 13.0877
rtibia 48.3899
rfoot -10.9862 -7.67974
rtoes 3.14528
lfemur 2.86052 0.67532 -21.7359
ltibia 5.01077
lfoot -6.54325 -6.71797
ltoes 30.3996
